<svg width="33" height="31" viewBox="0 0 33 31" fill="none" xmlns="http://www.w3.org/2000/svg">
<path d="M17.7669 15.9926V9.34815C17.7669 8.98979 17.6459 8.68981 17.404 8.44819C17.1624 8.20629 16.8624 8.08534 16.5041 8.08534C16.1457 8.08534 15.8457 8.20629 15.6041 8.44819C15.3622 8.68981 15.2413 8.98979 15.2413 9.34815V16.3812C15.2413 16.584 15.278 16.7773 15.3515 16.9608C15.4248 17.144 15.5403 17.3145 15.698 17.4722L20.6229 22.3972C20.8558 22.6304 21.1488 22.7496 21.5018 22.755C21.8549 22.7603 22.1533 22.641 22.3972 22.3972C22.641 22.1533 22.763 21.8575 22.763 21.5098C22.763 21.1624 22.641 20.8668 22.3972 20.6229L17.7669 15.9926ZM16.5041 30.8159C14.5181 30.8159 12.6574 30.4403 10.922 29.689C9.18637 28.9378 7.67311 27.9168 6.38223 26.6259C5.09136 25.335 4.07031 23.8218 3.31908 22.0861C2.56785 20.3507 2.19224 18.49 2.19224 16.5041C2.19224 14.5181 2.56785 12.6574 3.31908 10.922C4.07031 9.18637 5.09136 7.67311 6.38223 6.38223C7.67311 5.09136 9.18637 4.07031 10.922 3.31908C12.6574 2.56785 14.5181 2.19224 16.5041 2.19224C18.49 2.19224 20.3507 2.56785 22.0861 3.31908C23.8218 4.07031 25.335 5.09136 26.6259 6.38223C27.9168 7.67311 28.9378 9.18637 29.689 10.922C30.4403 12.6574 30.8159 14.5181 30.8159 16.5041C30.8159 18.49 30.4403 20.3507 29.689 22.0861C28.9378 23.8218 27.9168 25.335 26.6259 26.6259C25.335 27.9168 23.8218 28.9378 22.0861 29.689C20.3507 30.4403 18.49 30.8159 16.5041 30.8159ZM0.366215 6.87431C0.122072 6.63045 0 6.33467 0 5.98698C0 5.63956 0.122072 5.34393 0.366215 5.10006L5.10006 0.366215C5.33326 0.133016 5.62623 0.0137511 5.97898 0.00841924C6.332 0.00280675 6.63045 0.122072 6.87431 0.366215C7.11817 0.610077 7.2401 0.905715 7.2401 1.25313C7.2401 1.60082 7.11817 1.8966 6.87431 2.14046L2.14046 6.87431C1.90726 7.10751 1.61429 7.22677 1.26155 7.2321C0.908521 7.23744 0.610077 7.11817 0.366215 6.87431ZM32.6419 6.87431C32.3981 7.11817 32.1024 7.2401 31.755 7.2401C31.4073 7.2401 31.1115 7.11817 30.8677 6.87431L26.1338 2.14046C25.9006 1.90726 25.7814 1.61429 25.776 1.26155C25.7707 0.908522 25.89 0.610077 26.1338 0.366215C26.3777 0.122072 26.6735 0 27.0212 0C27.3686 0 27.6642 0.122072 27.9081 0.366215L32.6419 5.10006C32.8751 5.33326 32.9944 5.62623 32.9997 5.97898C33.0053 6.332 32.8861 6.63045 32.6419 6.87431ZM16.5041 28.2903C19.7767 28.2903 22.5592 27.1441 24.8517 24.8517C27.1441 22.5592 28.2903 19.7767 28.2903 16.5041C28.2903 13.2314 27.1441 10.4489 24.8517 8.15648C22.5592 5.86406 19.7767 4.71785 16.5041 4.71785C13.2314 4.71785 10.4489 5.86406 8.15648 8.15648C5.86406 10.4489 4.71785 13.2314 4.71785 16.5041C4.71785 19.7767 5.86406 22.5592 8.15648 24.8517C10.4489 27.1441 13.2314 28.2903 16.5041 28.2903Z" fill="#282828"/>
</svg>
